HIERARCHY
ROOT Hips
{
	OFFSET 0.000000 88.474243 0.000000
	CHANNELS 6 Xposition Yposition Zposition Zrotation Yrotation Xrotation 
	JOINT Hips_Spine
	{
		OFFSET 0.000000 0.000000 0.000000
		CHANNELS 3 Zrotation Yrotation Xrotation
		JOINT Spine
		{
			OFFSET 0.005100 8.711998 -0.691000
			CHANNELS 3 Zrotation Yrotation Xrotation
			JOINT Spine1
			{
				OFFSET -0.009200 8.660301 -1.275000
				CHANNELS 3 Zrotation Yrotation Xrotation
				JOINT Spine2
				{
					OFFSET 0.006300 9.852501 -1.857000
					CHANNELS 3 Zrotation Yrotation Xrotation
					JOINT Spine2_Neck
					{
						OFFSET 0.000000 0.000000 0.000000
						CHANNELS 3 Zrotation Yrotation Xrotation
						JOINT Neck
						{
							OFFSET 0.016300 11.420799 -0.263300
							CHANNELS 3 Zrotation Yrotation Xrotation
							End Site #name: Head
							{
								OFFSET -0.019200 9.262405 2.362500
							}
						}
					}
					JOINT Spine2_LeftShoulder
					{
						OFFSET 0.000000 0.000000 0.000000
						CHANNELS 3 Zrotation Yrotation Xrotation
						JOINT LeftShoulder
						{
							OFFSET 5.616900 6.732201 -0.345700
							CHANNELS 3 Zrotation Yrotation Xrotation
							JOINT LeftArm
							{
								OFFSET 10.664888 -0.183372 -2.440700
								CHANNELS 3 Zrotation Yrotation Xrotation
								JOINT LeftForeArm
								{
									OFFSET 27.459126 0.000000 0.000000
									CHANNELS 3 Zrotation Yrotation Xrotation
									End Site #name: LeftHand
									{
										OFFSET 21.306858 0.000000 0.000000
									}
								}
							}
						}
					}
					JOINT Spine2_RightShoulder
					{
						OFFSET 0.000000 0.000000 0.000000
						CHANNELS 3 Zrotation Yrotation Xrotation
						JOINT RightShoulder
						{
							OFFSET -5.580300 6.737503 -0.344400
							CHANNELS 3 Zrotation Yrotation Xrotation
							JOINT RightArm
							{
								OFFSET -10.679335 -0.188484 -2.383900
								CHANNELS 3 Zrotation Yrotation Xrotation
								JOINT RightForeArm
								{
									OFFSET -27.503529 0.000000 0.000000
									CHANNELS 3 Zrotation Yrotation Xrotation
									End Site #name: RightHand
									{
										OFFSET -21.306808 0.000000 0.000000
									}
								}
							}
						}
					}
				}
			}
		}
	}
	JOINT Hips_LeftUpLeg
	{
		OFFSET 0.000000 0.000000 0.000000
		CHANNELS 3 Zrotation Yrotation Xrotation
		JOINT LeftUpLeg
		{
			OFFSET 6.857700 -6.739601 0.312100
			CHANNELS 3 Zrotation Yrotation Xrotation
			JOINT LeftLeg
			{
				OFFSET -0.367590 -34.731552 -4.572400
				CHANNELS 3 Zrotation Yrotation Xrotation
				End Site #name: LeftFoot
				{
					OFFSET 0.367590 -34.656704 -6.067400
				}
			}
		}
	}
	JOINT Hips_RightUpLeg
	{
		OFFSET 0.000000 0.000000 0.000000
		CHANNELS 3 Zrotation Yrotation Xrotation
		JOINT RightUpLeg
		{
			OFFSET -6.876100 -6.733299 0.301000
			CHANNELS 3 Zrotation Yrotation Xrotation
			JOINT RightLeg
			{
				OFFSET 0.347353 -34.795158 -4.515900
				CHANNELS 3 Zrotation Yrotation Xrotation
				End Site #name: RightFoot
				{
					OFFSET -0.347353 -34.589367 -6.070300
				}
			}
		}
	}
}
MOTION
Frames: 9
Frame Time: 0.041667
-0.322897 -0.127380 -1.162746 -1.461067 -2.625506 -1.043697 0.000000 -0.000000 0.000000 -0.919145 0.738570 4.913003 -1.184223 -0.020017 2.821485 0.000000 0.000000 0.000000 -1.362388 -0.411014 1.729823 3.764509 -3.176772 9.498277 -1.266891 -0.431429 2.916009 -3.598753 6.463072 -0.623723 -70.976032 -4.720217 31.913505 0.122321 -6.434508 0.212681 -1.613568 -0.294934 2.484761 8.998979 -3.022166 0.432527 47.994672 35.853708 -6.954548 179.323011 41.744999 -179.760284 0.000000 -0.000000 -0.000000 1.795932 12.358145 -16.911721 3.092916 2.971182 18.132083 0.000000 -0.000000 0.000000 -0.913548 -10.095303 -12.326828 0.051369 -1.501658 17.443509 
-0.372166 -0.133946 -1.192974 -1.395251 -2.607326 -1.049197 0.000000 -0.000000 0.000000 -0.902410 0.721216 4.870127 -1.151111 -0.033814 2.825857 0.000000 0.000000 0.000000 -1.320176 -0.428445 1.748504 3.724632 -3.146630 9.502225 -1.229930 -0.451391 2.928807 -3.647174 6.410649 -0.619380 -71.111893 -4.970596 31.643914 0.123164 -6.170251 0.210327 -1.573652 -0.320310 2.499703 9.289422 -3.058019 0.424899 48.532736 35.533285 -6.241765 179.334081 41.982990 -179.759765 0.000000 -0.000000 -0.000000 1.797037 12.364943 -16.882551 3.075615 2.928384 18.072134 0.000000 -0.000000 0.000000 -0.911328 -10.095236 -12.303269 0.051459 -1.512069 17.413211 
-0.415324 -0.140544 -1.223446 -1.333674 -2.591176 -1.054956 0.000000 -0.000000 0.000000 -0.885597 0.709267 4.819985 -1.117110 -0.041462 2.825452 0.000000 0.000000 0.000000 -1.276628 -0.438558 1.768067 3.671073 -3.106846 9.499098 -1.193524 -0.462560 2.940159 -3.696408 6.354698 -0.613535 -71.245772 -5.217487 31.389163 0.123783 -5.902976 0.208337 -1.532360 -0.337431 2.512195 9.525498 -3.079961 0.410704 49.091031 35.186660 -5.488183 179.347238 42.232316 -179.758294 0.000000 -0.000000 -0.000000 1.800590 12.372908 -16.853959 3.061794 2.896940 18.017967 0.000000 -0.000000 0.000000 -0.911407 -10.092230 -12.283798 0.052605 -1.521479 17.390631 
-0.452214 -0.147131 -1.254134 -1.276515 -2.579977 -1.061264 0.000000 -0.000000 0.000000 -0.867922 0.698024 4.762954 -1.082083 -0.042216 2.822997 0.000000 0.000000 0.000000 -1.232038 -0.443084 1.786634 3.600769 -3.058639 9.492752 -1.155017 -0.469548 2.950159 -3.748572 6.296326 -0.608710 -71.372366 -5.464698 31.122678 0.123749 -5.637433 0.205413 -1.491541 -0.348358 2.525241 9.774629 -3.088824 0.396253 49.676086 34.816694 -4.698879 179.361729 42.484816 -179.757119 0.000000 -0.000000 -0.000000 1.801180 12.381373 -16.825601 3.050770 2.869722 17.964297 0.000000 -0.000000 0.000000 -0.914401 -10.087517 -12.262701 0.053950 -1.529667 17.365113 
-0.482742 -0.153758 -1.284976 -1.223323 -2.570070 -1.069432 0.000000 -0.000000 0.000000 -0.852347 0.684909 4.699117 -1.045758 -0.041496 2.820493 0.000000 0.000000 0.000000 -1.186508 -0.446180 1.805968 3.518276 -3.005275 9.485637 -1.116171 -0.470054 2.959621 -3.799999 6.233636 -0.603833 -71.490100 -5.700715 30.865306 0.124001 -5.357499 0.202227 -1.449115 -0.359508 2.539235 10.046452 -3.093459 0.381111 50.270716 34.416250 -3.885086 179.377048 42.769394 -179.756276 0.000000 -0.000000 -0.000000 1.802705 12.391338 -16.795344 3.041028 2.851918 17.909349 0.000000 -0.000000 0.000000 -0.916591 -10.079096 -12.241372 0.053969 -1.538221 17.338503 
-0.506998 -0.160283 -1.315933 -1.174502 -2.564749 -1.078277 0.000000 -0.000000 0.000000 -0.838318 0.671264 4.632085 -1.009150 -0.040977 2.818833 0.000000 0.000000 0.000000 -1.140244 -0.449341 1.827281 3.425956 -2.945982 9.471523 -1.075441 -0.471541 2.969198 -3.853775 6.168560 -0.597174 -71.613886 -5.937170 30.589265 0.122933 -5.078723 0.198982 -1.407296 -0.369659 2.552102 10.339891 -3.104715 0.363034 50.911114 33.931208 -2.967914 179.397474 43.122388 -179.752651 0.000000 -0.000000 -0.000000 1.803053 12.401137 -16.766372 3.034101 2.841389 17.858725 0.000000 -0.000000 0.000000 -0.921649 -10.073212 -12.222577 0.054502 -1.544232 17.318386 
-0.525163 -0.166665 -1.347005 -1.129658 -2.561668 -1.087003 0.000000 -0.000000 0.000000 -0.833116 0.656718 4.558166 -0.970967 -0.040478 2.816719 0.000000 0.000000 0.000000 -1.092829 -0.452147 1.849306 3.329741 -2.883685 9.455181 -1.034702 -0.471322 2.980884 -3.911341 6.091136 -0.590180 -71.729569 -6.159949 30.302940 0.121404 -4.794227 0.195406 -1.364328 -0.378264 2.564828 10.657097 -3.133045 0.339508 51.621907 33.337287 -1.935357 179.418331 43.537315 -179.749356 0.000000 -0.000000 -0.000000 1.802042 12.408693 -16.735263 3.030421 2.840537 17.807653 0.000000 -0.000000 0.000000 -0.928117 -10.064706 -12.202988 0.054651 -1.552891 17.293305 
-0.537376 -0.172916 -1.378178 -1.088595 -2.562644 -1.097509 0.000000 -0.000000 0.000000 -0.828992 0.643622 4.480664 -0.931228 -0.040334 2.815031 0.000000 0.000000 0.000000 -1.043449 -0.454026 1.874785 3.225947 -2.824830 9.406471 -0.990769 -0.469846 2.990959 -3.969007 6.018184 -0.583597 -71.860025 -6.403953 29.993421 0.120202 -4.493564 0.191490 -1.320647 -0.385464 2.577875 10.983968 -3.174271 0.310608 52.407413 32.668898 -0.807854 179.441618 44.033487 -179.743409 0.000000 -0.000000 -0.000000 1.801639 12.415267 -16.706160 3.029083 2.847580 17.762346 0.000000 -0.000000 0.000000 -0.937725 -10.056117 -12.183886 0.056433 -1.555762 17.274806 
-0.543719 -0.178986 -1.409442 -1.052123 -2.564870 -1.107345 0.000000 -0.000000 0.000000 -0.825019 0.631594 4.405158 -0.888957 -0.040069 2.812160 0.000000 0.000000 0.000000 -0.991518 -0.455317 1.899817 3.118450 -2.765211 9.344689 -0.945249 -0.467723 3.000548 -4.035775 5.935343 -0.575827 -71.992755 -6.655990 29.670185 0.118090 -4.174391 0.187855 -1.274412 -0.383695 2.595469 11.284702 -3.173127 0.285428 53.192973 31.967218 0.292404 179.467099 44.649922 -179.736948 0.000000 -0.000000 -0.000000 1.801581 12.423431 -16.679692 3.030445 2.862330 17.720778 0.000000 -0.000000 0.000000 -0.949594 -10.048194 -12.166542 0.056760 -1.562404 17.256073 
